<?xml version="1.0" encoding="utf-8"?>
<!-- Generator: Adobe Illustrator 20.1.0, SVG Export Plug-In . SVG Version: 6.00 Build 0)  -->
<svg version="1.1" id="Layer_1" xmlns="http://www.w3.org/2000/svg" xmlns:xlink="http://www.w3.org/1999/xlink" x="0px" y="0px"
	 viewBox="0 0 500 500" style="enable-background:new 0 0 500 500;" xml:space="preserve">
<g>
	<path style="fill:#231F20;" d="M461.4,293.8v-16.7c0-5.3-4.3-9.7-9.7-9.7c-21.8,0-33.5,7-42.9,12.6c-7.6,4.5-12.6,7.5-24.4,7.5
		c-11.9,0-16.9-3-24.4-7.5c-9.4-5.6-21.1-12.6-42.8-12.6c-21.8,0-33.5,7-42.9,12.6c-7.1,4.3-12.3,7.3-23.8,7.5c-0.2,0-0.6,0-0.6,0
		c-11.8,0-16.8-3-24.4-7.5c-9.4-5.6-21.1-12.6-42.9-12.6s-33.5,7-42.9,12.6c-7.6,4.5-12.5,7.5-24.4,7.5c-11.9,0-16.8-3-24.4-7.5
		c-9.4-5.6-21.1-12.6-42.8-12.6c-5.3,0-9.7,4.3-9.7,9.7v16.7c0,2.9,1.3,5.4,3.3,7.2c-2,1.8-3.3,4.3-3.3,7.2v16.7
		c0,2.9,1.3,5.4,3.3,7.2c-2,1.8-3.3,4.3-3.3,7.2V356c0,2.9,1.3,5.4,3.3,7.2c-2,1.8-3.3,4.3-3.3,7.2v16.7c0,2.9,1.3,5.4,3.3,7.2
		c-2,1.8-3.3,4.3-3.3,7.2v16.7c0,5.3,4.3,9.7,9.7,9.7c11.9,0,16.8,3,24.4,7.5c9.4,5.6,21.1,12.6,42.8,12.6c21.8,0,33.4-7,42.9-12.6
		c7.5-4.5,12.5-7.5,24.4-7.5c11.9,0,16.8,3,24.4,7.5c9.4,5.6,21.1,12.5,42.8,12.5l0.8,0c21.3-0.2,32.8-7,42-12.5
		c7.5-4.5,12.5-7.5,24.4-7.5c11.9,0,16.9,3,24.4,7.5c9.4,5.6,21.1,12.6,42.9,12.6c21.8,0,33.5-7,42.9-12.6
		c7.6-4.5,12.5-7.5,24.4-7.5c5.3,0,9.7-4.3,9.7-9.7v-16.7c0-2.9-1.3-5.4-3.3-7.2c2-1.8,3.3-4.3,3.3-7.2v-16.7c0-2.9-1.3-5.4-3.3-7.2
		c2-1.8,3.3-4.3,3.3-7.2v-16.7c0-2.9-1.3-5.4-3.3-7.2c2-1.8,3.3-4.3,3.3-7.2v-16.7c0-2.9-1.3-5.4-3.3-7.2
		C460.2,299.2,461.4,296.7,461.4,293.8z"/>
	<g>
		<path style="fill:#E1E555;" d="M413.9,288.3c-8,4.7-14.8,8.8-29.4,8.8c-14.5,0-21.4-4.1-29.4-8.8c-8.8-5.2-18.8-11.2-37.9-11.2
			c-19.1,0-29.1,5.9-37.9,11.2c-7.8,4.7-14.6,8.7-28.6,8.8v0c-0.2,0-0.5,0-0.7,0c-14.5,0-21.4-4.1-29.4-8.8
			c-8.8-5.2-18.8-11.2-37.9-11.2c-19.1,0-29.1,5.9-37.9,11.2c-8,4.7-14.8,8.8-29.3,8.8c-14.5,0-21.4-4.1-29.4-8.8
			c-8.8-5.2-18.8-11.2-37.9-11.2v16.7c14.5,0,21.4,4.1,29.4,8.8c8.8,5.2,18.8,11.2,37.9,11.2s29.1-6,37.9-11.2
			c8-4.7,14.8-8.8,29.3-8.8c14.5,0,21.4,4.1,29.4,8.8c8.8,5.2,18.8,11.2,37.9,11.2c0.3,0,0.5,0,0.7,0l0,0c0,0,0,0,0,0
			c18.6-0.2,28.5-6,37.2-11.2c8-4.7,14.8-8.8,29.3-8.8c14.5,0,21.4,4.1,29.4,8.8c8.8,5.2,18.8,11.2,37.9,11.2
			c19.1,0,29.1-5.9,37.9-11.2c8-4.7,14.8-8.8,29.4-8.8v-16.7C432.7,277.1,422.7,283,413.9,288.3z"/>
		<path style="fill:#E1E555;" d="M384.5,328.2c-14.5,0-21.4-4.1-29.4-8.8c-8.8-5.2-18.8-11.2-37.9-11.2c-19.1,0-29.1,5.9-37.9,11.2
			c-7.8,4.7-14.6,8.7-28.6,8.8v0c-0.2,0-0.5,0-0.7,0c-14.5,0-21.4-4.1-29.4-8.8c-8.8-5.2-18.8-11.2-37.9-11.2
			c-19.1,0-29.1,5.9-37.9,11.2c-8,4.7-14.8,8.8-29.3,8.8c-14.5,0-21.4-4.1-29.4-8.8c-8.8-5.2-18.8-11.2-37.9-11.2v16.7
			c14.5,0,21.4,4.1,29.4,8.8c8.8,5.2,18.8,11.2,37.9,11.2s29.1-5.9,37.9-11.2c8-4.7,14.8-8.8,29.3-8.8c14.5,0,21.4,4.1,29.4,8.8
			c8.8,5.2,18.8,11.2,37.9,11.2c0.3,0,0.5,0,0.7,0l0,0c0,0,0,0,0,0c18.6-0.2,28.4-6,37.1-11.2c8-4.7,14.8-8.8,29.3-8.8
			c14.5,0,21.4,4.1,29.4,8.8c8.8,5.2,18.8,11.2,37.9,11.2c19.1,0,29.1-5.9,37.9-11.2c8-4.7,14.8-8.8,29.4-8.8v-16.7
			c-19.1,0-29.1,5.9-37.9,11.2C405.9,324.1,399,328.2,384.5,328.2z"/>
		<path style="fill:#E1E555;" d="M384.5,359.3c-14.5,0-21.4-4.1-29.4-8.8c-8.8-5.2-18.8-11.2-37.9-11.2c-19.1,0-29.1,5.9-37.9,11.2
			c-7.8,4.7-14.6,8.7-28.6,8.8v0c-0.2,0-0.5,0-0.7,0c-14.5,0-21.4-4.1-29.4-8.8c-8.8-5.2-18.8-11.2-37.9-11.2
			c-19.1,0-29.1,5.9-37.9,11.2c-8,4.7-14.8,8.8-29.3,8.8c-14.5,0-21.4-4.1-29.4-8.8c-8.8-5.2-18.8-11.2-37.9-11.2V356
			c14.5,0,21.4,4.1,29.4,8.8c8.8,5.2,18.8,11.2,37.9,11.2s29.1-5.9,37.9-11.2c8-4.7,14.8-8.8,29.3-8.8c14.5,0,21.4,4.1,29.4,8.8
			c8.8,5.2,18.8,11.2,37.9,11.2c19.1,0,29.1-5.9,37.9-11.2c8-4.7,14.8-8.8,29.3-8.8c14.5,0,21.4,4.1,29.4,8.8
			c8.8,5.2,18.8,11.2,37.9,11.2c19.1,0,29.1-5.9,37.9-11.2c8-4.7,14.8-8.8,29.4-8.8v-16.7c-19.1,0-29.1,5.9-37.9,11.2
			C405.9,355.2,399,359.3,384.5,359.3z"/>
		<path style="fill:#E1E555;" d="M384.5,390.4c-14.5,0-21.4-4.1-29.4-8.8c-8.8-5.2-18.8-11.2-37.9-11.2c-19.1,0-29.1,5.9-37.9,11.2
			c-7.8,4.7-14.6,8.7-28.6,8.8v0c-0.2,0-0.5,0-0.7,0c-14.5,0-21.4-4.1-29.4-8.8c-8.8-5.2-18.8-11.2-37.9-11.2
			c-19.1,0-29.1,5.9-37.9,11.2c-8,4.7-14.8,8.8-29.3,8.8c-14.5,0-21.4-4.1-29.4-8.8c-8.8-5.2-18.8-11.2-37.9-11.2v16.7
			c14.5,0,21.4,4.1,29.4,8.8c8.8,5.2,18.8,11.2,37.9,11.2s29.1-5.9,37.9-11.2c8-4.7,14.8-8.8,29.3-8.8c14.5,0,21.4,4.1,29.4,8.8
			c8.8,5.2,18.8,11.2,37.9,11.2c0.3,0,0.5,0,0.7,0v0c0.1,0,0.3,0,0.4,0c1,0,2,0,2.9-0.1c0.1,0,0.3,0,0.4,0c1,0,1.9-0.1,2.8-0.2
			c0.1,0,0.2,0,0.3,0c0.9-0.1,1.9-0.2,2.8-0.3c0,0,0.1,0,0.1,0c12.6-1.7,20.4-6.3,27.5-10.5c8-4.7,14.8-8.8,29.3-8.8
			c14.5,0,21.4,4.1,29.4,8.8c8.8,5.3,18.8,11.2,37.9,11.2c19.1,0,29.1-5.9,37.9-11.2c8-4.7,14.8-8.8,29.4-8.8v-16.7
			c-19.1,0-29.1,5.9-37.9,11.2C405.9,386.3,399,390.4,384.5,390.4z"/>
		<path style="fill:#E1E555;" d="M384.5,421.5c-14.5,0-21.4-4.1-29.4-8.8c-8.8-5.2-18.8-11.2-37.9-11.2c-19.1,0-29.1,5.9-37.9,11.2
			c-7.8,4.7-14.6,8.7-28.6,8.8v0c-0.2,0-0.5,0-0.7,0c-14.5,0-21.4-4.1-29.4-8.8c-8.8-5.2-18.8-11.2-37.9-11.2
			c-19.1,0-29.1,5.9-37.9,11.2c-8,4.7-14.8,8.8-29.3,8.8c-14.5,0-21.4-4.1-29.4-8.8c-8.8-5.2-18.8-11.2-37.9-11.2v16.7
			c14.5,0,21.4,4.1,29.4,8.8c8.8,5.2,18.8,11.2,37.9,11.2s29.1-5.9,37.9-11.2c8-4.7,14.8-8.8,29.3-8.8c14.5,0,21.4,4.1,29.4,8.8
			c8.8,5.2,18.8,11.2,37.9,11.2c0.3,0,0.5,0,0.7,0l0,0c0,0,0,0,0,0c18.6-0.2,28.5-6,37.2-11.2c8-4.7,14.8-8.8,29.3-8.8
			c14.5,0,21.4,4.1,29.4,8.8c8.8,5.2,18.8,11.2,37.9,11.2c19.1,0,29.1-5.9,37.9-11.2c8-4.7,14.8-8.8,29.4-8.8v-16.7
			c-19.1,0-29.1,5.9-37.9,11.2C405.9,417.4,399,421.5,384.5,421.5z"/>
	</g>
	<g>
		<path style="fill:#67C0DB;stroke:#231F20;stroke-width:10;stroke-miterlimit:10;" d="M436.7,188.5c-0.8,3.9-1.5,7.9-2.5,11.7
			c-8.6,31.4-36.7,53.1-69.4,53.2c-75.8,0.1-210,0-285.9,0c-9.1,0-15.7-6.2-15.6-14.7c0.1-8.5,6.6-14.5,15.9-14.5
			c75.4,0,209.1,0,284.4,0c22.8,0,40.2-15,43.6-37.5c3.5-22.9-15-46.2-38.1-47.8c-25.7-1.9-45.8,15.9-47.1,41.7
			c-0.5,9.5-6.6,15.6-15.4,15.3c-8.4-0.3-14.1-6.9-13.7-16.4c0.2-4.9,0.7-10,1.8-14.8c7.7-32.8,38.4-57.6,75.8-55.1
			c32.6,2.1,61,28.7,65.5,62.3c0.1,0.7,0.4,1.3,0.7,2C436.7,178.8,436.7,183.6,436.7,188.5z"/>
		<path style="fill:#67C0DB;stroke:#231F20;stroke-width:10;stroke-miterlimit:10;" d="M63.3,178.3c3.1-8.7,9.4-11.6,18.4-11.6
			c39.7,0.2,79.5,0.1,119.2,0.1c20.8,0,37.7-13.1,42.5-32.6c5.7-23.1-8.4-46-32-51.8c-22.1-5.5-45.5,8.8-51,31.3
			c-0.8,3.4-1.2,6.9-1.4,10.4c-0.6,8.5-6.7,14.6-14.7,14.5c-8.3-0.1-14.5-6.8-14.5-15.6c0.2-29.5,19.5-56.7,47.5-66.6
			c5.6-2,11.4-3,17.2-4.4c4.9,0,9.7,0,14.6,0c4.1,0.9,8.3,1.7,12.3,2.8c31.8,9,53.9,39.3,52.3,71.5c-1.7,34.4-25.7,62.3-59,68.4
			c-5,0.9-10.1,1.1-15.2,1.1c-39.2,0.1-78.5-0.1-117.7,0.2c-9,0.1-15.3-2.7-18.6-11.2C63.3,182.7,63.3,180.5,63.3,178.3z"/>
	</g>
</g>
</svg>
